<mxfile host="app.diagrams.net" modified="2023-03-27T15:05:49.535Z" agent="Mozilla/5.0 (Windows NT 10.0; Win64; x64) AppleWebKit/537.36 (KHTML, like Gecko) Chrome/111.0.0.0 Safari/537.36" etag="g-4FjsUX3l1W80HcPIdP" version="21.1.0" type="device">
  <diagram name="Página-1" id="syx6TanqXz7abNU1U-BA">
    <mxGraphModel dx="1318" dy="532" grid="1" gridSize="10" guides="1" tooltips="1" connect="1" arrows="1" fold="1" page="1" pageScale="1" pageWidth="827" pageHeight="1169" math="0" shadow="0">
      <root>
        <mxCell id="0" />
        <mxCell id="1" parent="0" />
        <mxCell id="jLMDX9WhjYqnc2QiXSGX-3" value="" style="rhombus;whiteSpace=wrap;html=1;" parent="1" vertex="1">
          <mxGeometry x="355" y="340" width="90" height="90" as="geometry" />
        </mxCell>
        <mxCell id="nP9h4O7x623DdZkwCpyF-2" value="Equipo de Futbol" style="rounded=0;whiteSpace=wrap;html=1;" parent="1" vertex="1">
          <mxGeometry x="560" y="120" width="120" height="60" as="geometry" />
        </mxCell>
        <mxCell id="nP9h4O7x623DdZkwCpyF-3" value="Jugador" style="rounded=0;whiteSpace=wrap;html=1;" parent="1" vertex="1">
          <mxGeometry x="120" y="120" width="120" height="60" as="geometry" />
        </mxCell>
        <mxCell id="nP9h4O7x623DdZkwCpyF-4" value="Torneo" style="rounded=0;whiteSpace=wrap;html=1;" parent="1" vertex="1">
          <mxGeometry x="340" y="225" width="120" height="60" as="geometry" />
        </mxCell>
        <mxCell id="nP9h4O7x623DdZkwCpyF-6" value="participa en" style="rhombus;whiteSpace=wrap;html=1;" parent="1" vertex="1">
          <mxGeometry x="360" y="110" width="80" height="80" as="geometry" />
        </mxCell>
        <mxCell id="nP9h4O7x623DdZkwCpyF-13" value="" style="endArrow=none;html=1;rounded=0;entryX=0;entryY=0.5;entryDx=0;entryDy=0;exitX=1;exitY=0.5;exitDx=0;exitDy=0;" parent="1" source="nP9h4O7x623DdZkwCpyF-6" target="nP9h4O7x623DdZkwCpyF-2" edge="1">
          <mxGeometry width="50" height="50" relative="1" as="geometry">
            <mxPoint x="390" y="260" as="sourcePoint" />
            <mxPoint x="440" y="210" as="targetPoint" />
          </mxGeometry>
        </mxCell>
        <mxCell id="nP9h4O7x623DdZkwCpyF-14" value="" style="endArrow=none;html=1;rounded=0;entryX=0;entryY=0.5;entryDx=0;entryDy=0;exitX=1;exitY=0.5;exitDx=0;exitDy=0;" parent="1" source="nP9h4O7x623DdZkwCpyF-3" target="nP9h4O7x623DdZkwCpyF-6" edge="1">
          <mxGeometry width="50" height="50" relative="1" as="geometry">
            <mxPoint x="240" y="210" as="sourcePoint" />
            <mxPoint x="360" y="210" as="targetPoint" />
          </mxGeometry>
        </mxCell>
        <mxCell id="nP9h4O7x623DdZkwCpyF-15" value="" style="endArrow=none;html=1;rounded=0;entryX=0.5;entryY=0;entryDx=0;entryDy=0;exitX=0.5;exitY=1;exitDx=0;exitDy=0;" parent="1" source="nP9h4O7x623DdZkwCpyF-6" target="nP9h4O7x623DdZkwCpyF-4" edge="1">
          <mxGeometry width="50" height="50" relative="1" as="geometry">
            <mxPoint x="460" y="170" as="sourcePoint" />
            <mxPoint x="580" y="170" as="targetPoint" />
          </mxGeometry>
        </mxCell>
        <mxCell id="nP9h4O7x623DdZkwCpyF-16" value="N" style="text;html=1;strokeColor=none;fillColor=none;align=center;verticalAlign=middle;whiteSpace=wrap;rounded=0;" parent="1" vertex="1">
          <mxGeometry x="240" y="120" width="60" height="30" as="geometry" />
        </mxCell>
        <mxCell id="nP9h4O7x623DdZkwCpyF-21" value="1" style="text;html=1;strokeColor=none;fillColor=none;align=center;verticalAlign=middle;whiteSpace=wrap;rounded=0;" parent="1" vertex="1">
          <mxGeometry x="500" y="120" width="60" height="30" as="geometry" />
        </mxCell>
        <mxCell id="nP9h4O7x623DdZkwCpyF-22" value="N" style="text;html=1;strokeColor=none;fillColor=none;align=center;verticalAlign=middle;whiteSpace=wrap;rounded=0;" parent="1" vertex="1">
          <mxGeometry x="400" y="190" width="60" height="30" as="geometry" />
        </mxCell>
        <mxCell id="nP9h4O7x623DdZkwCpyF-23" value="&lt;u&gt;NroInscripcion&lt;/u&gt;" style="ellipse;whiteSpace=wrap;html=1;" parent="1" vertex="1">
          <mxGeometry x="135" y="60" width="90" height="30" as="geometry" />
        </mxCell>
        <mxCell id="nP9h4O7x623DdZkwCpyF-24" value="Nombre y apellido" style="ellipse;whiteSpace=wrap;html=1;" parent="1" vertex="1">
          <mxGeometry x="220" y="200" width="90" height="30" as="geometry" />
        </mxCell>
        <mxCell id="nP9h4O7x623DdZkwCpyF-25" value="Fecha de nacimiento" style="ellipse;whiteSpace=wrap;html=1;" parent="1" vertex="1">
          <mxGeometry x="10" y="220" width="90" height="30" as="geometry" />
        </mxCell>
        <mxCell id="nP9h4O7x623DdZkwCpyF-26" value="Ciudad y provincia de origen" style="ellipse;whiteSpace=wrap;html=1;" parent="1" vertex="1">
          <mxGeometry y="90" width="90" height="50" as="geometry" />
        </mxCell>
        <mxCell id="nP9h4O7x623DdZkwCpyF-27" value="Posición" style="ellipse;whiteSpace=wrap;html=1;" parent="1" vertex="1">
          <mxGeometry y="150" width="90" height="30" as="geometry" />
        </mxCell>
        <mxCell id="nP9h4O7x623DdZkwCpyF-29" value="" style="endArrow=none;html=1;rounded=0;entryX=0.5;entryY=1;entryDx=0;entryDy=0;exitX=0.5;exitY=0;exitDx=0;exitDy=0;" parent="1" source="nP9h4O7x623DdZkwCpyF-3" target="nP9h4O7x623DdZkwCpyF-23" edge="1">
          <mxGeometry width="50" height="50" relative="1" as="geometry">
            <mxPoint x="390" y="260" as="sourcePoint" />
            <mxPoint x="440" y="210" as="targetPoint" />
          </mxGeometry>
        </mxCell>
        <mxCell id="nP9h4O7x623DdZkwCpyF-30" value="" style="endArrow=none;html=1;rounded=0;entryX=0.5;entryY=1;entryDx=0;entryDy=0;exitX=0.5;exitY=0;exitDx=0;exitDy=0;" parent="1" source="nP9h4O7x623DdZkwCpyF-24" target="nP9h4O7x623DdZkwCpyF-3" edge="1">
          <mxGeometry width="50" height="50" relative="1" as="geometry">
            <mxPoint x="190" y="130" as="sourcePoint" />
            <mxPoint x="190" y="100" as="targetPoint" />
          </mxGeometry>
        </mxCell>
        <mxCell id="nP9h4O7x623DdZkwCpyF-31" value="" style="endArrow=none;html=1;rounded=0;entryX=0;entryY=0.5;entryDx=0;entryDy=0;exitX=0.578;exitY=-0.033;exitDx=0;exitDy=0;exitPerimeter=0;" parent="1" source="nP9h4O7x623DdZkwCpyF-25" target="nP9h4O7x623DdZkwCpyF-3" edge="1">
          <mxGeometry width="50" height="50" relative="1" as="geometry">
            <mxPoint x="200" y="140" as="sourcePoint" />
            <mxPoint x="200" y="110" as="targetPoint" />
          </mxGeometry>
        </mxCell>
        <mxCell id="nP9h4O7x623DdZkwCpyF-32" value="" style="endArrow=none;html=1;rounded=0;entryX=1;entryY=0.5;entryDx=0;entryDy=0;exitX=0;exitY=0.5;exitDx=0;exitDy=0;" parent="1" source="nP9h4O7x623DdZkwCpyF-3" target="nP9h4O7x623DdZkwCpyF-26" edge="1">
          <mxGeometry width="50" height="50" relative="1" as="geometry">
            <mxPoint x="210" y="150" as="sourcePoint" />
            <mxPoint x="210" y="120" as="targetPoint" />
          </mxGeometry>
        </mxCell>
        <mxCell id="nP9h4O7x623DdZkwCpyF-33" value="" style="endArrow=none;html=1;rounded=0;entryX=1;entryY=0.5;entryDx=0;entryDy=0;exitX=0;exitY=0.5;exitDx=0;exitDy=0;" parent="1" source="nP9h4O7x623DdZkwCpyF-3" target="nP9h4O7x623DdZkwCpyF-27" edge="1">
          <mxGeometry width="50" height="50" relative="1" as="geometry">
            <mxPoint x="220" y="160" as="sourcePoint" />
            <mxPoint x="220" y="130" as="targetPoint" />
          </mxGeometry>
        </mxCell>
        <mxCell id="nP9h4O7x623DdZkwCpyF-36" value="&lt;u&gt;Nombre&lt;/u&gt;" style="ellipse;whiteSpace=wrap;html=1;" parent="1" vertex="1">
          <mxGeometry x="575" y="70" width="90" height="30" as="geometry" />
        </mxCell>
        <mxCell id="nP9h4O7x623DdZkwCpyF-37" value="Ciudad" style="ellipse;whiteSpace=wrap;html=1;" parent="1" vertex="1">
          <mxGeometry x="710" y="120" width="90" height="30" as="geometry" />
        </mxCell>
        <mxCell id="nP9h4O7x623DdZkwCpyF-38" value="Provincia" style="ellipse;whiteSpace=wrap;html=1;" parent="1" vertex="1">
          <mxGeometry x="710" y="160" width="90" height="30" as="geometry" />
        </mxCell>
        <mxCell id="nP9h4O7x623DdZkwCpyF-39" value="" style="endArrow=none;html=1;rounded=0;entryX=0.5;entryY=1;entryDx=0;entryDy=0;exitX=0.5;exitY=0;exitDx=0;exitDy=0;" parent="1" source="nP9h4O7x623DdZkwCpyF-2" target="nP9h4O7x623DdZkwCpyF-36" edge="1">
          <mxGeometry width="50" height="50" relative="1" as="geometry">
            <mxPoint x="390" y="260" as="sourcePoint" />
            <mxPoint x="440" y="210" as="targetPoint" />
          </mxGeometry>
        </mxCell>
        <mxCell id="nP9h4O7x623DdZkwCpyF-41" value="" style="endArrow=none;html=1;rounded=0;entryX=0;entryY=0.5;entryDx=0;entryDy=0;exitX=1;exitY=0.5;exitDx=0;exitDy=0;" parent="1" source="nP9h4O7x623DdZkwCpyF-2" target="nP9h4O7x623DdZkwCpyF-37" edge="1">
          <mxGeometry width="50" height="50" relative="1" as="geometry">
            <mxPoint x="630" y="130" as="sourcePoint" />
            <mxPoint x="630" y="100" as="targetPoint" />
          </mxGeometry>
        </mxCell>
        <mxCell id="nP9h4O7x623DdZkwCpyF-42" value="" style="endArrow=none;html=1;rounded=0;entryX=0;entryY=0.5;entryDx=0;entryDy=0;exitX=1;exitY=0.5;exitDx=0;exitDy=0;" parent="1" source="nP9h4O7x623DdZkwCpyF-2" target="nP9h4O7x623DdZkwCpyF-38" edge="1">
          <mxGeometry width="50" height="50" relative="1" as="geometry">
            <mxPoint x="690" y="160" as="sourcePoint" />
            <mxPoint x="720" y="145" as="targetPoint" />
          </mxGeometry>
        </mxCell>
        <mxCell id="nP9h4O7x623DdZkwCpyF-45" value="FechaInscipcion&lt;br&gt;" style="ellipse;whiteSpace=wrap;html=1;" parent="1" vertex="1">
          <mxGeometry x="710" y="210" width="95" height="40" as="geometry" />
        </mxCell>
        <mxCell id="nP9h4O7x623DdZkwCpyF-46" value="" style="endArrow=none;html=1;rounded=0;entryX=0.5;entryY=0;entryDx=0;entryDy=0;exitX=1;exitY=0.5;exitDx=0;exitDy=0;" parent="1" target="nP9h4O7x623DdZkwCpyF-45" edge="1">
          <mxGeometry width="50" height="50" relative="1" as="geometry">
            <mxPoint x="620" y="180" as="sourcePoint" />
            <mxPoint x="660" y="175" as="targetPoint" />
          </mxGeometry>
        </mxCell>
        <mxCell id="jLMDX9WhjYqnc2QiXSGX-1" value="" style="shape=link;html=1;rounded=0;entryX=0.5;entryY=1;entryDx=0;entryDy=0;exitX=0.5;exitY=0;exitDx=0;exitDy=0;" parent="1" source="jLMDX9WhjYqnc2QiXSGX-2" target="nP9h4O7x623DdZkwCpyF-4" edge="1">
          <mxGeometry width="100" relative="1" as="geometry">
            <mxPoint x="400" y="340" as="sourcePoint" />
            <mxPoint x="340" y="420" as="targetPoint" />
          </mxGeometry>
        </mxCell>
        <mxCell id="jLMDX9WhjYqnc2QiXSGX-2" value="Tiene" style="rhombus;whiteSpace=wrap;html=1;" parent="1" vertex="1">
          <mxGeometry x="360" y="345" width="80" height="80" as="geometry" />
        </mxCell>
        <mxCell id="jLMDX9WhjYqnc2QiXSGX-28" style="edgeStyle=none;shape=connector;rounded=0;orthogonalLoop=1;jettySize=auto;html=1;exitX=0;exitY=0.5;exitDx=0;exitDy=0;labelBackgroundColor=default;strokeColor=default;fontFamily=Helvetica;fontSize=12;fontColor=default;endArrow=none;entryX=1;entryY=0.5;entryDx=0;entryDy=0;" parent="1" source="jLMDX9WhjYqnc2QiXSGX-7" target="jLMDX9WhjYqnc2QiXSGX-20" edge="1">
          <mxGeometry relative="1" as="geometry">
            <mxPoint x="460" y="500" as="targetPoint" />
          </mxGeometry>
        </mxCell>
        <mxCell id="jLMDX9WhjYqnc2QiXSGX-7" value="&lt;u&gt;NroFecha&lt;/u&gt;" style="ellipse;whiteSpace=wrap;html=1;strokeColor=default;fontFamily=Helvetica;fontSize=12;fontColor=default;fillColor=default;" parent="1" vertex="1">
          <mxGeometry x="480" y="510" width="90" height="40" as="geometry" />
        </mxCell>
        <mxCell id="jLMDX9WhjYqnc2QiXSGX-9" value="Dia y Hora" style="ellipse;whiteSpace=wrap;html=1;strokeColor=default;fontFamily=Helvetica;fontSize=12;fontColor=default;fillColor=default;" parent="1" vertex="1">
          <mxGeometry x="480" y="440" width="90" height="40" as="geometry" />
        </mxCell>
        <mxCell id="jLMDX9WhjYqnc2QiXSGX-10" value="" style="endArrow=none;html=1;rounded=0;fontFamily=Helvetica;fontSize=12;fontColor=default;entryX=0;entryY=0.5;entryDx=0;entryDy=0;exitX=1;exitY=0.5;exitDx=0;exitDy=0;" parent="1" source="jLMDX9WhjYqnc2QiXSGX-21" target="jLMDX9WhjYqnc2QiXSGX-9" edge="1">
          <mxGeometry width="50" height="50" relative="1" as="geometry">
            <mxPoint x="270" y="320" as="sourcePoint" />
            <mxPoint x="315" y="320" as="targetPoint" />
          </mxGeometry>
        </mxCell>
        <mxCell id="jLMDX9WhjYqnc2QiXSGX-12" value="" style="shape=link;html=1;rounded=0;fontFamily=Helvetica;fontSize=12;fontColor=default;exitX=0.5;exitY=1;exitDx=0;exitDy=0;entryX=0.5;entryY=0;entryDx=0;entryDy=0;" parent="1" source="jLMDX9WhjYqnc2QiXSGX-3" target="jLMDX9WhjYqnc2QiXSGX-21" edge="1">
          <mxGeometry width="100" relative="1" as="geometry">
            <mxPoint x="340" y="420" as="sourcePoint" />
            <mxPoint x="400" y="520" as="targetPoint" />
          </mxGeometry>
        </mxCell>
        <mxCell id="jLMDX9WhjYqnc2QiXSGX-25" value="" style="group" parent="1" vertex="1" connectable="0">
          <mxGeometry x="345" y="470" width="110" height="50" as="geometry" />
        </mxCell>
        <mxCell id="jLMDX9WhjYqnc2QiXSGX-21" value="" style="rounded=0;whiteSpace=wrap;html=1;strokeColor=default;fontFamily=Helvetica;fontSize=12;fontColor=default;fillColor=default;" parent="jLMDX9WhjYqnc2QiXSGX-25" vertex="1">
          <mxGeometry width="110" height="50" as="geometry" />
        </mxCell>
        <mxCell id="jLMDX9WhjYqnc2QiXSGX-20" value="Fecha" style="rounded=0;whiteSpace=wrap;html=1;strokeColor=default;fontFamily=Helvetica;fontSize=12;fontColor=default;fillColor=default;" parent="jLMDX9WhjYqnc2QiXSGX-25" vertex="1">
          <mxGeometry x="4.230769230769231" y="2.307692307692308" width="101.53846153846153" height="46.15384615384615" as="geometry" />
        </mxCell>
        <mxCell id="jLMDX9WhjYqnc2QiXSGX-29" value="" style="group" parent="1" vertex="1" connectable="0">
          <mxGeometry x="125" y="470" width="110" height="50" as="geometry" />
        </mxCell>
        <mxCell id="jLMDX9WhjYqnc2QiXSGX-30" value="" style="rounded=0;whiteSpace=wrap;html=1;strokeColor=default;fontFamily=Helvetica;fontSize=12;fontColor=default;fillColor=default;" parent="jLMDX9WhjYqnc2QiXSGX-29" vertex="1">
          <mxGeometry width="110" height="50" as="geometry" />
        </mxCell>
        <mxCell id="jLMDX9WhjYqnc2QiXSGX-31" value="Gol" style="rounded=0;whiteSpace=wrap;html=1;strokeColor=default;fontFamily=Helvetica;fontSize=12;fontColor=default;fillColor=default;" parent="jLMDX9WhjYqnc2QiXSGX-29" vertex="1">
          <mxGeometry x="4.230769230769231" y="2.307692307692308" width="101.53846153846153" height="46.15384615384615" as="geometry" />
        </mxCell>
        <mxCell id="jLMDX9WhjYqnc2QiXSGX-36" value="" style="rhombus;whiteSpace=wrap;html=1;" parent="1" vertex="1">
          <mxGeometry x="240" y="450" width="90" height="90" as="geometry" />
        </mxCell>
        <mxCell id="jLMDX9WhjYqnc2QiXSGX-37" value="se marcan" style="rhombus;whiteSpace=wrap;html=1;" parent="1" vertex="1">
          <mxGeometry x="245" y="455" width="80" height="80" as="geometry" />
        </mxCell>
        <mxCell id="jLMDX9WhjYqnc2QiXSGX-38" value="" style="shape=link;html=1;rounded=0;fontFamily=Helvetica;fontSize=12;fontColor=default;labelBackgroundColor=default;strokeColor=default;endArrow=none;entryX=0;entryY=0.5;entryDx=0;entryDy=0;exitX=1;exitY=0.5;exitDx=0;exitDy=0;" parent="1" source="jLMDX9WhjYqnc2QiXSGX-36" target="jLMDX9WhjYqnc2QiXSGX-21" edge="1">
          <mxGeometry width="100" relative="1" as="geometry">
            <mxPoint x="260" y="320" as="sourcePoint" />
            <mxPoint x="360" y="320" as="targetPoint" />
          </mxGeometry>
        </mxCell>
        <mxCell id="jLMDX9WhjYqnc2QiXSGX-40" value="" style="shape=link;html=1;rounded=0;fontFamily=Helvetica;fontSize=12;fontColor=default;labelBackgroundColor=default;strokeColor=default;endArrow=none;entryX=0;entryY=0.5;entryDx=0;entryDy=0;exitX=1;exitY=0.5;exitDx=0;exitDy=0;" parent="1" source="jLMDX9WhjYqnc2QiXSGX-31" target="jLMDX9WhjYqnc2QiXSGX-37" edge="1">
          <mxGeometry width="100" relative="1" as="geometry">
            <mxPoint x="260" y="320" as="sourcePoint" />
            <mxPoint x="360" y="320" as="targetPoint" />
          </mxGeometry>
        </mxCell>
        <mxCell id="jLMDX9WhjYqnc2QiXSGX-42" style="edgeStyle=none;shape=connector;rounded=0;orthogonalLoop=1;jettySize=auto;html=1;exitX=0.5;exitY=0;exitDx=0;exitDy=0;entryX=0.5;entryY=1;entryDx=0;entryDy=0;labelBackgroundColor=default;strokeColor=default;fontFamily=Helvetica;fontSize=12;fontColor=default;endArrow=none;" parent="1" source="jLMDX9WhjYqnc2QiXSGX-41" target="jLMDX9WhjYqnc2QiXSGX-30" edge="1">
          <mxGeometry relative="1" as="geometry" />
        </mxCell>
        <mxCell id="jLMDX9WhjYqnc2QiXSGX-41" value="&lt;u&gt;NroGol&lt;/u&gt;" style="ellipse;whiteSpace=wrap;html=1;strokeColor=default;fontFamily=Helvetica;fontSize=12;fontColor=default;fillColor=default;rounded=0;" parent="1" vertex="1">
          <mxGeometry x="10" y="545" width="90" height="40" as="geometry" />
        </mxCell>
        <mxCell id="jLMDX9WhjYqnc2QiXSGX-43" value="Minuto" style="ellipse;whiteSpace=wrap;html=1;strokeColor=default;fontFamily=Helvetica;fontSize=12;fontColor=default;fillColor=default;rounded=0;" parent="1" vertex="1">
          <mxGeometry x="10" y="475" width="90" height="40" as="geometry" />
        </mxCell>
        <mxCell id="jLMDX9WhjYqnc2QiXSGX-44" style="edgeStyle=none;shape=connector;rounded=0;orthogonalLoop=1;jettySize=auto;html=1;exitX=0;exitY=0.5;exitDx=0;exitDy=0;entryX=1;entryY=0.5;entryDx=0;entryDy=0;labelBackgroundColor=default;strokeColor=default;fontFamily=Helvetica;fontSize=12;fontColor=default;endArrow=none;" parent="1" source="jLMDX9WhjYqnc2QiXSGX-30" target="jLMDX9WhjYqnc2QiXSGX-43" edge="1">
          <mxGeometry relative="1" as="geometry" />
        </mxCell>
        <mxCell id="3FyedS1p1ZvCjYf3QSC5-1" value="marcó" style="rhombus;whiteSpace=wrap;html=1;" vertex="1" parent="1">
          <mxGeometry x="140" y="280" width="80" height="80" as="geometry" />
        </mxCell>
        <mxCell id="3FyedS1p1ZvCjYf3QSC5-3" value="" style="endArrow=none;html=1;rounded=0;fontFamily=Helvetica;fontSize=12;fontColor=default;exitX=0.5;exitY=1;exitDx=0;exitDy=0;" edge="1" parent="1" source="nP9h4O7x623DdZkwCpyF-3" target="3FyedS1p1ZvCjYf3QSC5-1">
          <mxGeometry width="50" height="50" relative="1" as="geometry">
            <mxPoint x="370" y="350" as="sourcePoint" />
            <mxPoint x="415" y="350" as="targetPoint" />
          </mxGeometry>
        </mxCell>
        <mxCell id="3FyedS1p1ZvCjYf3QSC5-4" value="" style="endArrow=none;html=1;rounded=0;fontFamily=Helvetica;fontSize=12;fontColor=default;entryX=0.5;entryY=0;entryDx=0;entryDy=0;exitX=0.5;exitY=1;exitDx=0;exitDy=0;" edge="1" parent="1" source="3FyedS1p1ZvCjYf3QSC5-1" target="jLMDX9WhjYqnc2QiXSGX-30">
          <mxGeometry width="50" height="50" relative="1" as="geometry">
            <mxPoint x="370" y="350" as="sourcePoint" />
            <mxPoint x="415" y="350" as="targetPoint" />
          </mxGeometry>
        </mxCell>
        <mxCell id="3FyedS1p1ZvCjYf3QSC5-5" value="" style="endArrow=none;html=1;rounded=0;fontFamily=Helvetica;fontSize=12;fontColor=default;exitX=0.5;exitY=1;exitDx=0;exitDy=0;" edge="1" parent="1" source="jLMDX9WhjYqnc2QiXSGX-30">
          <mxGeometry width="50" height="50" relative="1" as="geometry">
            <mxPoint x="370" y="350" as="sourcePoint" />
            <mxPoint x="620" y="570" as="targetPoint" />
            <Array as="points">
              <mxPoint x="180" y="570" />
            </Array>
          </mxGeometry>
        </mxCell>
        <mxCell id="3FyedS1p1ZvCjYf3QSC5-6" value="" style="endArrow=none;html=1;rounded=0;fontFamily=Helvetica;fontSize=12;fontColor=default;exitX=0.5;exitY=1;exitDx=0;exitDy=0;entryX=0.5;entryY=0;entryDx=0;entryDy=0;" edge="1" parent="1" source="nP9h4O7x623DdZkwCpyF-2" target="3FyedS1p1ZvCjYf3QSC5-7">
          <mxGeometry width="50" height="50" relative="1" as="geometry">
            <mxPoint x="370" y="350" as="sourcePoint" />
            <mxPoint x="620" y="290" as="targetPoint" />
          </mxGeometry>
        </mxCell>
        <mxCell id="3FyedS1p1ZvCjYf3QSC5-7" value="A favor de&amp;nbsp;" style="rhombus;whiteSpace=wrap;html=1;" vertex="1" parent="1">
          <mxGeometry x="580" y="290" width="80" height="80" as="geometry" />
        </mxCell>
        <mxCell id="3FyedS1p1ZvCjYf3QSC5-8" value="" style="endArrow=none;html=1;rounded=0;fontFamily=Helvetica;fontSize=12;fontColor=default;entryX=0.5;entryY=1;entryDx=0;entryDy=0;" edge="1" parent="1" target="3FyedS1p1ZvCjYf3QSC5-7">
          <mxGeometry width="50" height="50" relative="1" as="geometry">
            <mxPoint x="620" y="570" as="sourcePoint" />
            <mxPoint x="630" y="300" as="targetPoint" />
          </mxGeometry>
        </mxCell>
        <mxCell id="3FyedS1p1ZvCjYf3QSC5-9" value="" style="endArrow=none;html=1;rounded=0;fontFamily=Helvetica;fontSize=12;fontColor=default;exitX=0.5;exitY=0;exitDx=0;exitDy=0;" edge="1" parent="1" source="3FyedS1p1ZvCjYf3QSC5-11" target="nP9h4O7x623DdZkwCpyF-2">
          <mxGeometry width="50" height="50" relative="1" as="geometry">
            <mxPoint x="540" y="250" as="sourcePoint" />
            <mxPoint x="415" y="350" as="targetPoint" />
          </mxGeometry>
        </mxCell>
        <mxCell id="3FyedS1p1ZvCjYf3QSC5-11" value="juega en" style="rhombus;whiteSpace=wrap;html=1;" vertex="1" parent="1">
          <mxGeometry x="485" y="265" width="80" height="80" as="geometry" />
        </mxCell>
        <mxCell id="3FyedS1p1ZvCjYf3QSC5-12" value="" style="endArrow=none;html=1;rounded=0;fontFamily=Helvetica;fontSize=12;fontColor=default;exitX=0.5;exitY=1;exitDx=0;exitDy=0;entryX=0.75;entryY=0;entryDx=0;entryDy=0;" edge="1" parent="1" source="3FyedS1p1ZvCjYf3QSC5-11" target="jLMDX9WhjYqnc2QiXSGX-20">
          <mxGeometry width="50" height="50" relative="1" as="geometry">
            <mxPoint x="535" y="275" as="sourcePoint" />
            <mxPoint x="605" y="190" as="targetPoint" />
          </mxGeometry>
        </mxCell>
        <mxCell id="3FyedS1p1ZvCjYf3QSC5-13" value="(2,2)" style="text;html=1;strokeColor=none;fillColor=none;align=center;verticalAlign=middle;whiteSpace=wrap;rounded=0;" vertex="1" parent="1">
          <mxGeometry x="560" y="200" width="60" height="30" as="geometry" />
        </mxCell>
        <mxCell id="3FyedS1p1ZvCjYf3QSC5-14" value="N" style="text;html=1;strokeColor=none;fillColor=none;align=center;verticalAlign=middle;whiteSpace=wrap;rounded=0;" vertex="1" parent="1">
          <mxGeometry x="385" y="440" width="60" height="30" as="geometry" />
        </mxCell>
        <mxCell id="3FyedS1p1ZvCjYf3QSC5-16" value="local?" style="ellipse;whiteSpace=wrap;html=1;strokeColor=default;fontFamily=Helvetica;fontSize=12;fontColor=default;fillColor=default;" vertex="1" parent="1">
          <mxGeometry x="520" y="370" width="90" height="40" as="geometry" />
        </mxCell>
        <mxCell id="3FyedS1p1ZvCjYf3QSC5-19" value="" style="endArrow=none;html=1;rounded=0;fontFamily=Helvetica;fontSize=12;fontColor=default;entryX=0.5;entryY=0;entryDx=0;entryDy=0;" edge="1" parent="1" source="3FyedS1p1ZvCjYf3QSC5-11" target="3FyedS1p1ZvCjYf3QSC5-16">
          <mxGeometry width="50" height="50" relative="1" as="geometry">
            <mxPoint x="370" y="350" as="sourcePoint" />
            <mxPoint x="415" y="350" as="targetPoint" />
          </mxGeometry>
        </mxCell>
        <mxCell id="3FyedS1p1ZvCjYf3QSC5-21" value="N" style="text;html=1;strokeColor=none;fillColor=none;align=center;verticalAlign=middle;whiteSpace=wrap;rounded=0;" vertex="1" parent="1">
          <mxGeometry x="135" y="440" width="60" height="30" as="geometry" />
        </mxCell>
        <mxCell id="3FyedS1p1ZvCjYf3QSC5-23" value="(1,1)" style="text;html=1;strokeColor=none;fillColor=none;align=center;verticalAlign=middle;whiteSpace=wrap;rounded=0;" vertex="1" parent="1">
          <mxGeometry x="125" y="180" width="60" height="30" as="geometry" />
        </mxCell>
        <mxCell id="3FyedS1p1ZvCjYf3QSC5-24" value="(1,1)" style="text;html=1;strokeColor=none;fillColor=none;align=center;verticalAlign=middle;whiteSpace=wrap;rounded=0;" vertex="1" parent="1">
          <mxGeometry x="340" y="290" width="60" height="30" as="geometry" />
        </mxCell>
        <mxCell id="3FyedS1p1ZvCjYf3QSC5-25" value="N" style="text;html=1;strokeColor=none;fillColor=none;align=center;verticalAlign=middle;whiteSpace=wrap;rounded=0;" vertex="1" parent="1">
          <mxGeometry x="210" y="440" width="60" height="30" as="geometry" />
        </mxCell>
        <mxCell id="3FyedS1p1ZvCjYf3QSC5-26" value="(1,1)" style="text;html=1;strokeColor=none;fillColor=none;align=center;verticalAlign=middle;whiteSpace=wrap;rounded=0;" vertex="1" parent="1">
          <mxGeometry x="310" y="440" width="60" height="30" as="geometry" />
        </mxCell>
        <mxCell id="3FyedS1p1ZvCjYf3QSC5-27" value="N" style="text;html=1;strokeColor=none;fillColor=none;align=center;verticalAlign=middle;whiteSpace=wrap;rounded=0;" vertex="1" parent="1">
          <mxGeometry x="165" y="530" width="60" height="30" as="geometry" />
        </mxCell>
        <mxCell id="3FyedS1p1ZvCjYf3QSC5-28" value="(1,1)" style="text;html=1;strokeColor=none;fillColor=none;align=center;verticalAlign=middle;whiteSpace=wrap;rounded=0;" vertex="1" parent="1">
          <mxGeometry x="620" y="195" width="60" height="30" as="geometry" />
        </mxCell>
      </root>
    </mxGraphModel>
  </diagram>
</mxfile>
